<?xml version="1.0" standalone="no"?>
<!DOCTYPE svg PUBLIC "-//W3C//DTD SVG 20010904//EN"
 "http://www.w3.org/TR/2001/REC-SVG-20010904/DTD/svg10.dtd">
<svg version="1.0" xmlns="http://www.w3.org/2000/svg"
 width="300.000000pt" height="168.000000pt" viewBox="0 0 300.000000 168.000000"
 preserveAspectRatio="xMidYMid meet">

<g transform="translate(0.000000,168.000000) scale(0.100000,-0.100000)"
fill="#000000" stroke="none">
<path d="M2305 1643 c9 -21 30 -53 48 -72 18 -19 38 -41 44 -48 7 -8 34 -16
60 -19 41 -4 54 -1 88 24 38 27 40 31 39 80 -1 29 2 50 6 47 11 -7 40 5 40 16
0 5 -77 9 -170 9 l-170 0 15 -37z"/>
<path d="M1516 1553 c-63 -5 -145 -62 -146 -100 0 -7 -3 -13 -8 -13 -9 0 -52
-93 -52 -114 0 -9 7 -16 15 -16 17 0 20 -16 5 -25 -5 -3 -10 -11 -10 -17 0 -6
12 -2 28 7 15 10 24 14 20 10 -4 -4 2 -15 13 -24 19 -15 56 -127 39 -116 -5 3
-11 1 -15 -5 -3 -5 -14 -10 -25 -10 -14 0 -18 -8 -19 -32 0 -18 -2 -48 -5 -66
-2 -18 -1 -30 3 -27 5 2 11 24 15 47 10 63 46 96 46 42 0 -40 15 -58 69 -84
34 -15 47 -26 39 -31 -9 -6 -9 -9 2 -13 13 -4 64 -17 80 -20 37 -8 49 -46 14
-46 -8 0 -14 -4 -14 -9 0 -14 23 -19 43 -9 22 11 23 -9 2 -48 -23 -44 -20 -74
8 -74 12 0 41 -9 65 -20 32 -15 49 -17 68 -10 14 6 50 10 79 10 75 0 85 16 85
137 0 55 -4 93 -10 93 -5 0 -10 -15 -10 -32 0 -49 -12 -108 -21 -108 -4 0 -5
22 -2 49 3 27 2 66 -1 86 l-7 37 -65 -4 c-35 -2 -64 -1 -64 3 0 4 11 16 25 27
13 11 21 22 18 26 -6 6 12 10 30 7 5 -1 5 18 2 42 -4 28 0 69 14 122 29 116
17 193 -40 267 -19 24 -26 37 -16 29 20 -16 30 -12 18 7 -5 8 -36 15 -82 17
-41 2 -99 6 -129 8 -30 2 -77 2 -104 0z m151 -29 c-3 -3 -12 -4 -19 -1 -8 3
-5 6 6 6 11 1 17 -2 13 -5z m38 -24 c-4 -6 9 -10 32 -10 45 0 77 -20 98 -60
24 -46 20 -62 -14 -58 -16 1 -35 -2 -42 -8 -8 -6 -22 -14 -31 -17 -18 -7 -25
-27 -9 -27 5 0 25 7 44 15 47 20 67 11 67 -29 -1 -26 -2 -28 -11 -13 -11 19
-79 25 -79 6 0 -13 68 -42 80 -34 11 7 13 -37 4 -84 -5 -21 -12 -31 -25 -31
-13 0 -19 -7 -19 -24 0 -13 -7 -29 -15 -36 -8 -7 -13 -16 -10 -20 7 -11 -46
-34 -87 -36 -21 -1 -40 2 -43 6 -3 5 -12 7 -20 4 -7 -3 -19 4 -25 16 -9 16
-15 19 -23 11 -21 -21 -126 -4 -112 18 3 5 1 12 -5 16 -5 3 -10 19 -10 35 0
16 -7 48 -16 70 -12 30 -14 50 -7 78 5 20 7 45 5 55 -4 21 -22 23 -22 2 0 -8
-4 -15 -9 -15 -5 0 -8 7 -7 16 0 9 -5 19 -11 21 -7 3 -13 -1 -13 -9 0 -21 -17
-41 -28 -34 -17 10 10 55 40 65 18 6 28 19 33 40 4 17 11 31 16 31 11 0 11 -7
0 -48 -6 -20 -6 -32 0 -32 11 0 33 49 30 66 -2 16 18 30 69 47 51 18 185 23
175 7z m14 -607 l-3 -48 44 -5 c41 -5 43 -6 24 -17 -54 -31 -105 23 -82 88 14
42 20 36 17 -18z"/>
<path d="M1599 1365 c45 -14 66 -12 56 6 -4 5 -27 9 -53 8 l-47 0 44 -14z"/>
<path d="M1540 1320 c0 -12 47 -12 75 0 15 6 8 9 -27 9 -27 1 -48 -3 -48 -9z"/>
<path d="M1657 1243 c-3 -5 8 -9 24 -10 16 -1 29 2 29 7 0 12 -47 13 -53 3z"/>
<path d="M1740 1241 c0 -5 -8 -18 -17 -27 -17 -16 -17 -17 -1 -11 10 3 27 -2
40 -13 25 -20 19 -37 -9 -25 -35 15 -74 15 -103 0 -29 -15 -29 -16 -10 -35 33
-33 67 -51 86 -44 43 14 62 27 57 40 -3 8 0 21 7 30 10 11 10 18 2 26 -6 6 -8
24 -5 39 5 26 3 29 -21 29 -14 0 -26 -4 -26 -9z m-10 -90 c0 -5 -10 -12 -22
-15 -13 -2 -6 -4 15 -2 46 3 45 -18 -2 -22 -19 -2 -43 4 -59 14 l-27 18 25 7
c37 10 70 10 70 0z"/>
<path d="M1605 1190 c-3 -6 1 -7 9 -4 18 7 21 14 7 14 -6 0 -13 -4 -16 -10z"/>
<path d="M525 1456 c-19 -21 -35 -44 -35 -52 0 -17 -12 -18 -29 -1 -21 20 -44
-20 -36 -63 4 -19 9 -38 11 -42 6 -10 64 9 85 28 11 10 19 12 19 6 0 -7 -4
-12 -10 -12 -5 0 -10 -5 -10 -11 0 -12 81 44 107 75 18 20 18 20 -9 3 -33 -20
-35 -18 -9 11 10 12 22 18 26 14 5 -4 5 1 2 11 -4 10 -7 28 -7 38 0 16 -5 19
-20 14 -12 -4 -28 -1 -36 5 -12 10 -21 6 -49 -24z"/>
<path d="M143 1458 c-6 -7 -21 -40 -32 -73 -16 -43 -20 -50 -17 -25 3 19 8 46
12 60 7 22 6 23 -7 10 -8 -8 -20 -33 -27 -55 -13 -44 -42 -190 -42 -209 1 -24
18 21 30 76 12 59 30 87 30 46 0 -13 -4 -38 -9 -56 -16 -56 5 -26 28 40 12 35
26 72 31 83 27 64 31 85 23 100 -8 13 -12 14 -20 3z"/>
<path d="M990 1466 c0 -2 7 -6 15 -10 8 -3 15 -1 15 4 0 6 -7 10 -15 10 -8 0
-15 -2 -15 -4z"/>
<path d="M415 1450 c-3 -5 1 -10 10 -10 9 0 13 5 10 10 -3 6 -8 10 -10 10 -2
0 -7 -4 -10 -10z"/>
<path d="M955 1427 c-11 -7 -32 -20 -47 -30 -18 -12 -36 -15 -54 -11 -20 5
-25 3 -22 -7 3 -8 -12 -24 -36 -40 -45 -29 -85 -69 -69 -69 6 0 13 7 17 15 9
24 25 18 20 -7 -3 -15 2 -9 16 14 27 49 70 75 70 42 0 -12 6 -15 25 -10 l26 7
-21 -42 c-28 -54 -21 -60 9 -6 22 41 24 42 76 42 38 0 51 -3 48 -12 -8 -20 12
-15 32 7 11 12 31 20 50 20 18 0 38 7 45 15 11 13 8 14 -19 9 -25 -5 -31 -3
-31 10 0 11 15 20 45 28 25 7 45 16 45 21 0 5 -20 7 -45 3 -25 -3 -65 -9 -90
-12 -36 -5 -46 -3 -51 10 -7 19 -12 19 -39 3z m39 -53 c3 -9 4 -20 0 -25 -7
-12 -55 -11 -74 1 -12 7 -11 10 5 15 11 4 27 10 35 15 22 13 27 12 34 -6z"/>
<path d="M47 1424 c-4 -4 -7 -14 -7 -23 0 -11 3 -12 11 -4 6 6 10 16 7 23 -2
6 -7 8 -11 4z"/>
<path d="M2328 1403 l-58 -4 0 -54 c0 -30 5 -57 10 -60 6 -3 10 -14 10 -25 0
-16 18 -30 41 -30 5 0 7 26 5 60 -3 36 -1 58 5 55 5 -4 9 -13 9 -22 0 -9 6
-13 14 -10 21 8 36 -15 34 -54 -1 -48 12 -97 28 -103 19 -7 17 -27 -5 -53 -24
-28 -31 -29 -31 -3 0 11 -4 20 -10 20 -5 0 -10 -4 -10 -10 0 -18 -41 -33 -64
-22 -35 16 -107 36 -127 35 -11 -1 -16 3 -13 11 3 8 -4 16 -15 19 -23 6 -28
-12 -9 -31 9 -9 8 -15 -8 -26 -16 -12 -16 -15 -4 -19 94 -31 117 -37 136 -37
26 0 34 -30 34 -136 0 -71 13 -102 31 -73 5 8 9 54 9 102 0 49 4 86 9 83 18
-12 51 -123 45 -155 -4 -18 -2 -31 4 -31 19 0 20 54 1 98 -11 26 -16 48 -11
51 6 3 11 15 13 26 2 10 14 22 27 25 13 3 22 7 20 10 -1 3 4 15 13 27 l16 23
12 -26 c14 -32 25 -26 13 7 -5 13 -7 39 -4 57 3 26 11 36 33 44 15 5 31 18 34
29 4 10 11 19 16 19 6 0 7 -9 4 -20 -5 -14 -2 -20 10 -20 10 0 15 -6 13 -17
-2 -10 -11 -17 -20 -15 -12 2 -16 -6 -16 -35 0 -20 -6 -42 -14 -47 -15 -12
-22 -86 -8 -86 4 0 6 -9 3 -19 -3 -12 9 -40 31 -72 38 -57 50 -59 16 -4 -17
28 -18 36 -8 62 12 27 15 28 38 16 24 -12 24 -13 3 -13 -16 0 -20 -5 -16 -21
4 -16 12 -19 37 -17 27 3 31 7 34 35 2 23 7 30 17 27 19 -8 27 28 23 97 -2 45
-7 56 -25 64 -13 5 -23 15 -23 22 0 16 15 17 32 1 17 -17 51 -16 70 0 20 16
24 6 38 -85 6 -37 14 -71 18 -77 4 -6 7 -29 8 -51 0 -22 2 -53 2 -69 l2 -29
27 27 27 27 12 -28 c10 -23 13 -24 13 -8 1 17 3 18 12 5 8 -11 12 -12 16 -2 7
18 21 15 26 -5 2 -10 7 59 12 152 5 119 4 183 -4 213 -6 23 -11 55 -11 70 0
16 -9 38 -20 50 -22 23 -46 31 -34 10 5 -8 2 -9 -12 -3 -35 14 -64 17 -64 6 0
-5 -7 -8 -15 -5 -11 5 -15 -1 -15 -24 0 -16 7 -49 15 -72 8 -23 15 -52 15 -64
0 -11 7 -34 15 -50 17 -32 19 -62 6 -70 -5 -4 -12 13 -16 35 -4 23 -18 73 -31
110 -13 38 -24 75 -24 84 0 11 -11 15 -39 15 -25 0 -41 5 -45 15 -4 11 -16 14
-48 10 -23 -3 -44 -8 -47 -11 -3 -3 4 -23 17 -44 25 -44 32 -142 10 -137 -23
4 -54 103 -49 154 2 16 -5 23 -28 28 -21 4 -31 13 -31 25 0 25 -26 32 -75 20
-57 -14 -65 -12 -65 10 0 11 -3 19 -7 18 -5 -1 -34 -3 -65 -5z m52 -63 c0 -5
-2 -10 -4 -10 -3 0 -8 5 -11 10 -3 6 -1 10 4 10 6 0 11 -4 11 -10z m360 -71
c0 -6 -4 -7 -10 -4 -5 3 -10 11 -10 16 0 6 5 7 10 4 6 -3 10 -11 10 -16z m54
-36 c1 -44 -1 -50 -12 -39 -8 7 -16 32 -19 56 -5 37 -4 42 12 39 15 -3 19 -14
19 -56z m128 -195 c-9 -9 -12 -4 -11 23 0 32 1 33 11 11 8 -17 8 -26 0 -34z
m-65 -20 c-3 -7 -5 -2 -5 12 0 14 2 19 5 13 2 -7 2 -19 0 -25z"/>
<path d="M2428 1403 c12 -2 30 -2 40 0 9 3 -1 5 -23 4 -22 0 -30 -2 -17 -4z"/>
<path d="M31 1354 c0 -11 3 -14 6 -6 3 7 2 16 -1 19 -3 4 -6 -2 -5 -13z"/>
<path d="M21 1314 c0 -11 3 -14 6 -6 3 7 2 16 -1 19 -3 4 -6 -2 -5 -13z"/>
<path d="M171 1248 c-8 -30 -11 -62 -9 -69 3 -8 11 12 17 44 16 75 9 97 -8 25z"/>
<path d="M132 1255 c-7 -14 -12 -31 -12 -38 0 -7 -8 -28 -18 -47 -10 -19 -20
-55 -21 -79 -1 -25 -4 -48 -7 -52 -2 -4 0 -11 6 -14 6 -4 10 -16 9 -28 -4 -48
2 -97 11 -97 6 0 9 31 8 78 -1 42 3 100 10 127 16 71 33 168 29 172 -2 2 -9
-8 -15 -22z"/>
<path d="M1006 1234 c-15 -20 -24 -39 -20 -44 5 -4 19 12 31 36 12 24 21 44
20 44 -1 0 -15 -16 -31 -36z"/>
<path d="M680 1218 c-32 -44 -40 -68 -15 -48 8 7 15 19 15 27 0 10 6 12 23 7
40 -13 50 -9 58 19 4 15 4 27 -1 27 -11 0 -21 -30 -14 -42 4 -6 1 -8 -7 -6 -8
3 -13 16 -11 32 4 38 -13 32 -48 -16z m31 5 c-12 -20 -14 -14 -5 12 4 9 9 14
11 11 3 -2 0 -13 -6 -23z"/>
<path d="M1335 1251 c-3 -6 3 -9 14 -8 11 0 17 5 15 9 -7 11 -22 10 -29 -1z"/>
<path d="M918 1198 c-8 -13 -18 -32 -22 -43 -7 -20 -7 -20 12 0 16 17 36 65
27 65 -1 0 -9 -10 -17 -22z"/>
<path d="M1060 1205 c-7 -9 -11 -17 -9 -20 3 -2 10 5 17 15 14 24 10 26 -8 5z"/>
<path d="M242 1170 c-16 -26 -16 -83 0 -78 15 5 29 68 19 85 -5 9 -10 7 -19
-7z"/>
<path d="M701 1174 c0 -11 3 -14 6 -6 3 7 2 16 -1 19 -3 4 -6 -2 -5 -13z"/>
<path d="M726 1162 c-15 -25 -15 -88 -1 -107 14 -17 17 -18 25 -5 5 8 10 23
10 34 0 15 -3 16 -14 7 -11 -9 -13 -6 -12 16 1 16 5 33 9 40 4 6 3 14 -2 17
-5 4 -12 2 -15 -2z"/>
<path d="M1330 1160 c0 -5 5 -10 11 -10 5 0 7 5 4 10 -3 6 -8 10 -11 10 -2 0
-4 -4 -4 -10z"/>
<path d="M1050 1149 c0 -5 5 -7 10 -4 6 3 10 8 10 11 0 2 -4 4 -10 4 -5 0 -10
-5 -10 -11z"/>
<path d="M141 1128 c0 -9 -4 -25 -7 -35 -5 -17 -5 -17 6 0 6 10 9 25 7 35 -4
15 -5 15 -6 0z"/>
<path d="M642 1110 c0 -19 2 -27 5 -17 2 9 2 25 0 35 -3 9 -5 1 -5 -18z"/>
<path d="M856 1107 c-14 -15 -15 -21 -6 -27 9 -6 11 -21 6 -48 -3 -24 -2 -43
4 -47 5 -3 10 -2 10 4 0 5 10 12 23 14 l22 4 -22 2 c-21 1 -23 6 -23 50 0 30
5 51 12 53 7 3 8 7 3 10 -6 2 -18 -4 -29 -15z"/>
<path d="M1040 1113 c0 -10 -3 -29 -7 -42 -4 -16 -2 -22 4 -18 14 9 22 66 11
73 -4 3 -8 -3 -8 -13z"/>
<path d="M1976 920 c0 -93 3 -172 6 -176 4 -3 16 0 28 6 16 9 19 15 11 23 -7
7 -9 45 -7 106 2 64 2 76 -3 36 l-6 -60 -7 55 c-4 30 -8 83 -8 118 0 34 -3 62
-7 62 -5 0 -8 -76 -7 -170z"/>
<path d="M566 1048 c-9 -12 -16 -29 -15 -38 0 -13 1 -13 6 0 3 8 12 23 21 33
8 9 13 20 10 23 -3 3 -13 -5 -22 -18z"/>
<path d="M126 1005 c-3 -10 -3 -22 3 -28 12 -12 20 4 11 27 -6 19 -7 19 -14 1z"/>
<path d="M920 1016 c0 -2 7 -7 16 -10 8 -3 12 -2 9 4 -6 10 -25 14 -25 6z"/>
<path d="M789 997 c5 -5 7 -16 4 -23 -3 -8 1 -14 8 -14 8 0 15 10 15 23 1 16
-4 23 -17 23 -11 0 -15 -4 -10 -9z"/>
<path d="M963 979 c1 -20 -3 -34 -12 -37 -10 -3 -12 0 -8 12 4 10 1 16 -7 16
-8 0 -22 3 -32 7 -12 4 -15 3 -10 -5 4 -7 3 -12 -3 -12 -5 0 -9 -9 -8 -20 2
-26 27 -36 27 -10 0 10 5 22 11 25 6 4 9 0 7 -11 -2 -14 4 -20 21 -22 13 -2
21 0 17 6 -3 5 1 13 10 16 14 5 14 9 3 22 -11 14 -8 15 27 10 33 -5 35 -4 11
3 -16 5 -34 15 -42 21 -11 9 -13 5 -12 -21z"/>
<path d="M1005 1000 c3 -5 8 -10 11 -10 2 0 4 5 4 10 0 6 -5 10 -11 10 -5 0
-7 -4 -4 -10z"/>
<path d="M1050 995 c7 -8 17 -15 22 -15 6 0 5 7 -2 15 -7 8 -17 15 -22 15 -6
0 -5 -7 2 -15z"/>
<path d="M750 990 c0 -5 5 -10 10 -10 6 0 10 5 10 10 0 6 -4 10 -10 10 -5 0
-10 -4 -10 -10z"/>
<path d="M1116 965 c4 -8 11 -15 16 -15 6 0 5 6 -2 15 -7 8 -14 15 -16 15 -2
0 -1 -7 2 -15z"/>
<path d="M2410 971 c0 -6 4 -13 10 -16 6 -3 7 1 4 9 -7 18 -14 21 -14 7z"/>
<path d="M518 963 c-10 -2 -18 -9 -18 -14 0 -6 8 -5 20 1 11 6 20 13 20 15 0
3 -1 4 -2 4 -2 -1 -11 -3 -20 -6z"/>
<path d="M845 953 c1 -10 -2 -24 -8 -30 -7 -10 -4 -13 10 -13 14 0 19 6 17 23
-1 12 -3 25 -3 30 -1 4 -5 7 -10 7 -5 0 -8 -8 -6 -17z"/>
<path d="M1308 953 c6 -2 12 -9 12 -15 0 -6 -20 -8 -50 -5 -27 3 -50 1 -50 -3
0 -8 47 -19 89 -21 19 -1 15 -3 -14 -9 -22 -5 -44 -4 -49 1 -6 5 -17 9 -25 9
-27 0 13 -32 43 -33 14 -1 26 -5 26 -8 0 -12 31 -19 57 -13 25 7 25 8 7 21
-17 13 -17 14 11 7 28 -7 29 -6 13 9 -9 9 -21 17 -27 17 -6 0 -11 7 -11 16 0
8 5 12 10 9 6 -3 10 0 10 7 0 8 -13 14 -33 15 -17 0 -26 -1 -19 -4z"/>
<path d="M795 940 c3 -5 11 -10 16 -10 6 0 7 5 4 10 -3 6 -11 10 -16 10 -6 0
-7 -4 -4 -10z"/>
<path d="M2760 940 c-22 -6 -23 -8 -7 -15 20 -8 47 0 47 15 0 11 -4 11 -40 0z"/>
<path d="M2805 931 c-3 -5 -1 -12 5 -16 5 -3 10 1 10 9 0 18 -6 21 -15 7z"/>
<path d="M1174 914 c3 -9 6 -25 6 -35 0 -12 4 -17 11 -14 6 4 8 13 5 21 -3 7
-1 16 5 19 13 9 1 25 -18 25 -10 0 -13 -6 -9 -16z"/>
<path d="M770 910 c0 -5 4 -10 9 -10 6 0 13 5 16 10 3 6 -1 10 -9 10 -9 0 -16
-4 -16 -10z"/>
<path d="M135 853 c-7 -53 -8 -56 -18 -33 l-10 25 -5 -23 c-5 -29 5 -55 17
-48 12 8 23 -23 14 -37 -4 -7 -6 -23 -4 -36 2 -15 -1 -21 -8 -17 -8 5 -11 -14
-11 -58 0 -51 -3 -66 -14 -66 -8 0 -18 9 -21 20 -11 35 -23 12 -17 -35 3 -29
1 -45 -6 -45 -7 0 -9 -11 -6 -30 9 -44 -1 -63 -26 -50 -21 11 -21 9 -19 -87
l2 -98 38 -39 39 -40 -10 35 c-13 44 -13 43 7 24 15 -16 17 -16 26 0 5 9 6 27
3 41 -11 41 1 27 49 -63 53 -98 85 -146 92 -139 2 2 -3 16 -12 30 -28 42 -7
49 33 11 48 -45 59 -44 53 2 -2 14 42 1 67 -19 7 -7 4 5 -8 25 -13 21 -17 37
-11 37 7 0 14 -7 17 -15 9 -23 26 -18 19 5 -4 12 -2 20 5 20 15 0 -24 69 -67
117 -19 21 -38 48 -43 61 -5 12 -14 22 -20 22 -14 0 -13 -6 7 -38 l17 -27 -23
23 c-23 23 -44 22 -35 -2 3 -7 -2 -18 -9 -25 -12 -9 -18 -3 -36 35 -12 25 -25
59 -28 76 -5 27 -4 30 11 25 10 -4 21 1 28 13 7 11 23 20 36 20 21 0 23 4 18
25 -8 31 9 33 25 3 9 -16 14 -19 17 -9 3 8 10 1 18 -19 8 -17 12 -36 9 -40 -8
-13 28 -90 42 -90 7 0 12 -10 10 -21 -1 -12 4 -24 11 -26 16 -6 5 47 -14 62
-14 11 -56 154 -46 156 4 1 11 1 16 0 11 -2 1 106 -14 144 -10 27 -11 27 -25
9 -13 -18 -14 -17 -15 15 0 33 -1 33 -19 17 -15 -13 -20 -14 -24 -4 -3 7 -6 1
-6 -14 -1 -18 -6 -28 -16 -28 -8 0 -15 5 -15 10 0 5 -5 9 -12 7 -12 -2 -39 68
-52 136 -5 24 -3 37 4 37 6 0 8 -5 4 -12 -5 -7 -3 -8 5 -4 9 6 9 12 -3 25 -15
16 -22 51 -12 51 3 0 34 -22 70 -49 55 -42 202 -111 236 -111 27 0 70 -32 77
-58 9 -37 41 -94 63 -112 10 -8 20 -34 23 -58 l5 -44 -24 23 c-24 22 -24 22
-24 2 0 -16 -5 -20 -20 -16 -17 5 -20 0 -20 -30 0 -30 -3 -34 -20 -30 -16 4
-20 0 -20 -21 0 -14 -4 -26 -10 -26 -23 0 -6 -34 56 -117 37 -48 69 -90 70
-92 2 -2 7 -2 10 2 3 3 1 12 -5 19 -36 43 -82 111 -78 114 2 3 12 -8 22 -23
28 -42 125 -135 138 -130 6 2 12 9 13 15 1 7 0 8 -3 2 -2 -5 -9 -10 -15 -10
-6 0 -6 6 2 15 7 8 16 12 21 9 18 -11 117 -15 123 -5 3 5 -12 26 -34 47 -22
21 -37 40 -35 43 3 2 12 -4 21 -15 9 -10 5 1 -9 26 -14 25 -32 45 -41 45 -8 0
-22 9 -30 20 -23 30 -19 41 4 14 17 -21 19 -21 13 -4 -3 11 -14 31 -22 45 -15
23 -15 24 2 17 10 -4 23 -7 28 -7 5 0 9 -8 9 -18 0 -10 11 -29 25 -42 14 -13
25 -29 25 -36 0 -7 11 -25 24 -41 12 -15 22 -32 20 -38 -3 -11 72 -69 112 -87
14 -7 22 -16 19 -22 -3 -6 -8 -18 -11 -27 -3 -8 -19 -23 -35 -33 -16 -9 -29
-21 -29 -27 0 -5 50 -9 117 -9 110 0 115 1 100 18 -8 9 -18 29 -22 43 -9 36
-73 97 -110 103 -35 6 -143 118 -151 156 -3 14 -9 33 -15 42 -5 11 -5 18 0 18
5 0 15 -12 22 -27 6 -16 26 -39 42 -53 l30 -24 -18 27 c-25 38 -5 34 37 -9
l36 -35 -2 30 c-1 16 -5 33 -9 37 -4 4 -7 13 -7 20 0 7 -13 26 -29 42 -18 18
-36 52 -46 88 -9 32 -19 66 -23 74 -3 8 -6 32 -7 53 0 31 6 46 35 76 48 52
104 61 195 30 36 -12 68 -26 71 -30 3 -5 12 -9 21 -9 15 0 14 2 0 18 -10 10
-17 23 -17 28 0 5 -20 23 -45 39 -25 17 -47 37 -50 46 -3 8 -14 25 -26 37 -24
27 -94 30 -124 5 -21 -16 -16 -16 71 4 27 6 54 -21 54 -54 0 -20 -3 -23 -13
-15 -16 14 -99 18 -118 7 -8 -5 -20 -10 -27 -11 -8 -2 -21 -9 -30 -17 -28 -25
-135 -50 -188 -44 -67 7 -131 22 -146 34 -14 11 -84 30 -158 42 -61 10 -110
35 -161 82 -23 21 -43 39 -45 39 -1 0 -5 -26 -9 -57z m689 -179 c9 -25 7 -46
-5 -42 -6 2 -10 7 -9 12 2 12 -22 26 -33 19 -4 -2 -3 -11 3 -18 7 -8 7 -15 1
-19 -5 -4 -12 3 -16 14 -4 12 -15 20 -28 20 -27 0 -11 17 23 23 48 8 58 7 64
-9z m-554 -150 c0 -8 -4 -12 -10 -9 -5 3 -10 10 -10 16 0 5 5 9 10 9 6 0 10
-7 10 -16z m-90 -80 c0 -8 -5 -12 -10 -9 -6 4 -8 11 -5 16 9 14 15 11 15 -7z
m500 -4 c0 -5 -2 -10 -4 -10 -3 0 -8 5 -11 10 -3 6 -1 10 4 10 6 0 11 -4 11
-10z m114 -26 c3 -8 2 -12 -4 -9 -6 3 -10 10 -10 16 0 14 7 11 14 -7z m-139
-154 c22 -26 41 -54 43 -62 3 -12 -11 2 -56 57 -39 47 -44 55 -36 55 5 -1 27
-23 49 -50z m-455 -1 c0 -4 -4 -11 -10 -14 -6 -3 -7 1 -4 9 3 9 1 16 -5 16 -6
0 -11 8 -11 18 1 15 2 15 15 -2 8 -11 15 -23 15 -27z m95 0 c11 -17 -1 -21
-15 -4 -8 9 -8 15 -2 15 6 0 14 -5 17 -11z m-109 -61 c24 -46 11 -43 -16 4
-13 22 -18 38 -11 34 6 -4 18 -21 27 -38z m104 -9 c0 -6 -4 -7 -10 -4 -5 3
-10 11 -10 16 0 6 5 7 10 4 6 -3 10 -11 10 -16z m641 -15 c7 -9 22 -20 34 -24
14 -6 16 -9 4 -9 -9 -1 -29 10 -45 24 -16 14 -24 25 -18 25 6 0 18 -7 25 -16z"/>
<path d="M1360 829 c0 -6 7 -9 15 -5 8 3 15 2 15 -2 0 -4 12 -8 27 -9 15 0 29
-6 31 -12 3 -9 8 -9 18 0 11 9 14 8 14 -4 0 -8 6 -17 13 -20 10 -4 10 -7 0
-18 -16 -16 -17 -29 -3 -29 6 0 10 7 10 16 0 10 7 14 23 12 12 -2 21 -9 19
-17 -2 -7 5 -22 14 -32 9 -11 12 -19 6 -19 -6 0 -14 5 -17 10 -3 6 -18 10 -33
9 -25 -1 -25 -2 11 -16 20 -9 37 -20 37 -24 0 -5 9 -18 20 -29 22 -22 28 -65
8 -57 -7 3 -38 16 -68 30 -37 16 -62 22 -75 16 -17 -6 -16 -8 8 -8 31 -1 157
-60 157 -73 0 -11 -2 -10 -41 6 -42 17 -151 27 -142 13 4 -6 0 -8 -9 -4 -11 4
-15 0 -14 -11 4 -22 34 -28 42 -8 8 21 62 21 100 1 16 -8 38 -15 49 -15 15 0
16 -3 7 -12 -6 -6 -35 -12 -64 -11 -46 0 -49 -1 -23 -9 17 -5 42 -6 58 -4 19
4 27 1 27 -9 0 -13 -14 -14 -85 -10 -47 3 -85 1 -85 -4 0 -13 30 -22 50 -16 9
3 28 1 41 -4 23 -9 23 -10 -7 -10 -37 -1 -94 -20 -94 -31 0 -5 14 -2 31 7 16
8 38 13 48 10 10 -2 46 1 82 7 l64 12 3 58 c3 54 -13 116 -30 116 -5 0 -8 7
-8 15 0 8 -9 29 -19 46 -11 17 -17 38 -14 45 3 8 0 14 -6 14 -6 0 -8 7 -5 15
5 11 -1 15 -18 15 -28 0 -48 17 -42 35 8 20 -11 26 -82 31 -42 3 -64 0 -64 -7z"/>
<path d="M1227 819 c7 -7 15 -10 18 -7 3 3 -2 9 -12 12 -14 6 -15 5 -6 -5z"/>
<path d="M2409 818 c0 -2 -3 -36 -5 -75 -4 -49 -2 -73 5 -73 7 0 11 28 11 75
0 41 -2 75 -5 75 -3 0 -5 -1 -6 -2z"/>
<path d="M2630 811 c0 -7 7 -34 17 -60 17 -50 13 -89 -12 -115 -17 -17 -5 -29
20 -20 14 6 16 3 11 -14 -3 -12 -8 -30 -11 -40 -3 -9 -19 -23 -37 -31 -18 -8
-27 -16 -20 -19 31 -10 5 -20 -70 -26 -46 -4 -136 -15 -200 -25 -65 -9 -123
-14 -130 -9 -7 4 -25 8 -40 8 -16 0 -28 4 -28 9 0 6 -20 13 -45 17 -51 7 -56
12 -48 42 6 25 28 32 62 20 14 -5 28 -5 33 0 5 5 -11 13 -36 19 -25 5 -43 6
-40 2 3 -5 -6 -9 -20 -9 -13 0 -31 -3 -40 -6 -22 -8 -21 33 1 58 9 10 13 21
10 25 -8 8 -47 -26 -47 -41 0 -6 -18 -29 -40 -50 -22 -22 -40 -43 -40 -47 0
-4 -10 -5 -21 -2 -19 5 -21 3 -17 -25 2 -18 0 -32 -5 -32 -5 0 -7 -7 -3 -15 3
-9 0 -15 -8 -15 -16 0 -28 -52 -20 -86 4 -13 1 -30 -5 -38 -12 -14 -9 -28 16
-85 16 -36 5 -55 -24 -44 -7 3 -13 0 -13 -6 0 -6 -6 -11 -14 -11 -24 0 -27
-31 -6 -60 11 -15 20 -33 20 -39 0 -12 13 -15 22 -5 4 3 2 20 -3 37 -12 42 4
57 26 24 24 -38 16 -71 -17 -75 -16 -2 -28 -8 -28 -14 0 -6 9 -8 23 -4 35 11
77 13 77 4 0 -4 93 -8 208 -7 114 0 198 4 187 8 -29 12 -216 33 -301 35 -66 1
-74 3 -74 20 0 11 3 17 6 14 11 -12 56 41 50 59 -3 10 1 31 9 47 8 15 15 34
15 41 0 7 5 15 12 17 6 2 12 22 12 44 1 21 5 45 9 52 5 7 4 12 -2 12 -19 0
-12 28 9 33 22 6 28 -16 33 -118 2 -57 3 -60 28 -60 22 0 25 -3 21 -24 -4 -21
-2 -23 19 -17 13 4 35 9 49 10 14 2 30 4 35 6 6 1 15 1 20 0 6 -1 17 -3 25 -4
9 0 14 -9 12 -19 -3 -15 1 -17 17 -12 12 4 23 0 28 -10 8 -14 12 -13 29 6 10
11 18 23 17 25 -8 12 -1 22 17 27 17 4 20 14 20 56 0 30 7 62 16 75 14 23 14
25 -7 40 -18 13 -20 18 -9 30 7 9 10 23 6 31 -4 10 1 15 14 15 23 0 26 -10 8
-28 -9 -9 -9 -12 1 -12 9 0 12 -9 9 -25 -7 -37 16 -52 36 -23 9 12 16 19 16
14 0 -5 7 -3 15 4 21 17 83 15 104 -4 10 -9 22 -16 27 -16 5 0 33 -16 63 -36
l53 -36 -4 -92 c-3 -64 -11 -105 -26 -138 l-21 -48 155 0 154 0 0 65 c0 36 -4
65 -9 65 -5 0 -16 15 -25 33 -25 49 -40 71 -53 80 -6 4 -15 22 -18 39 -10 44
-96 125 -141 134 -19 3 -34 10 -34 14 0 4 -6 8 -12 7 -43 -1 -48 2 -37 29 5
15 7 29 4 32 -3 3 1 12 9 21 17 19 22 73 12 121 -15 69 -65 199 -66 171z
m-666 -410 c15 -6 16 -10 7 -16 -7 -4 -16 -3 -20 2 -3 6 -13 13 -21 16 -13 5
-13 5 0 6 8 0 24 -4 34 -8z m-72 -33 c-7 -7 -12 -8 -12 -2 0 14 12 26 19 19 2
-3 -1 -11 -7 -17z m348 -78 c-6 -11 -18 -20 -28 -20 -14 1 -13 4 7 20 29 25
34 25 21 0z m-45 -90 c-3 -5 -11 -10 -16 -10 -6 0 -7 5 -4 10 3 6 11 10 16 10
6 0 7 -4 4 -10z"/>
<path d="M1520 800 c0 -5 5 -10 11 -10 5 0 7 5 4 10 -3 6 -8 10 -11 10 -2 0
-4 -4 -4 -10z"/>
<path d="M1288 793 c7 -3 16 -2 19 1 4 3 -2 6 -13 5 -11 0 -14 -3 -6 -6z"/>
<path d="M1300 770 c0 -5 5 -10 10 -10 6 0 10 5 10 10 0 6 -4 10 -10 10 -5 0
-10 -4 -10 -10z"/>
<path d="M1346 757 c3 -10 9 -15 12 -12 3 3 0 11 -7 18 -10 9 -11 8 -5 -6z"/>
<path d="M1385 760 c3 -5 8 -10 11 -10 2 0 4 5 4 10 0 6 -5 10 -11 10 -5 0 -7
-4 -4 -10z"/>
<path d="M1425 741 c-3 -6 4 -9 15 -8 11 1 20 5 20 9 0 11 -28 10 -35 -1z"/>
<path d="M1515 730 c3 -5 8 -10 11 -10 2 0 4 5 4 10 0 6 -5 10 -11 10 -5 0 -7
-4 -4 -10z"/>
<path d="M1455 710 c4 -6 11 -8 16 -5 14 9 11 15 -7 15 -8 0 -12 -5 -9 -10z"/>
<path d="M451 694 c0 -11 3 -14 6 -6 3 7 2 16 -1 19 -3 4 -6 -2 -5 -13z"/>
<path d="M2443 583 c9 -2 23 -2 30 0 6 3 -1 5 -18 5 -16 0 -22 -2 -12 -5z"/>
<path d="M1336 417 c3 -10 9 -15 12 -12 3 3 0 11 -7 18 -10 9 -11 8 -5 -6z"/>
<path d="M485 240 c6 -29 44 -80 59 -80 4 0 18 -12 31 -27 47 -54 26 3 -26 71
-56 72 -74 82 -64 36z"/>
<path d="M450 233 c1 -20 59 -95 60 -75 0 6 -4 12 -9 12 -5 0 -16 18 -25 40
-17 43 -26 51 -26 23z"/>
<path d="M110 190 c0 -5 5 -10 11 -10 5 0 7 5 4 10 -3 6 -8 10 -11 10 -2 0 -4
-4 -4 -10z"/>
<path d="M160 104 c0 -14 4 -23 9 -20 5 3 7 15 4 26 -7 28 -13 25 -13 -6z"/>
</g>
</svg>
